# This file uses centimeters as units for non-parametric coordinates.

mtllib ghgh.mtl
g default
v -0.496820 0.255807 0.299049
v 0.305274 0.352715 0.686655
v -0.544603 0.173071 -0.354293
v 0.435043 0.227764 -0.368246
v -0.525000 0.319752 -0.016923
v 0.590608 -0.116235 -0.554114
v -0.656924 -0.106821 -0.441233
v 0.363942 -0.111430 0.854834
v -0.680756 -0.011422 0.385134
v 0.374770 0.349408 0.000255
v 0.863239 -0.131236 0.066228
v -0.858075 0.074875 -0.171017
v -0.634131 0.044250 -0.420456
v 0.537294 0.102215 -0.446244
v 0.320862 -0.302035 -0.353960
v -0.354321 -0.237569 -0.213444
v 0.415799 -0.230842 -0.009576
v 0.574372 -0.095923 0.522410
v 0.771388 -0.003420 -0.326374
v 0.641635 0.160815 -0.013216
v -0.442427 -0.211460 0.009873
v -0.794222 -0.047381 -0.254486
v -0.787612 0.030407 0.117064
v -0.808490 0.285903 -0.218915
v -0.483310 0.088787 0.724988
v -0.390462 -0.188632 0.251981
v 0.203979 -0.247139 0.498856
v 0.336301 0.049536 0.796967
v -0.417678 0.308897 0.430413
v -0.613115 0.140912 0.352276
v -0.260764 0.499464 -0.039608
v -0.516154 0.309331 0.159973
v 0.367495 0.460622 0.434502
v 0.420478 0.314738 -0.221069
v -0.412840 0.191853 -0.412552
v -0.531961 0.272833 -0.203845
v -0.383522 -0.213370 -0.711725
v -0.289083 -0.171279 0.395117
v -0.439809 0.217340 0.628758
v -0.249221 0.630504 0.045192
v -0.295212 0.377923 -0.191636
v -0.438631 -0.041791 -0.666615
v -0.209169 -0.286799 -0.303938
v 0.306116 -0.244927 0.289179
v 0.405840 -0.212064 -0.172775
v 0.678292 0.171287 -0.273259
v 0.534387 0.320058 0.547660
v -0.434244 -0.218470 -0.110332
v -0.428782 -0.199356 0.131761
v -0.725627 0.215009 0.079527
v -0.734970 0.134960 -0.258705
vt 0.375000 0.250000
vt 0.625000 0.250000
vt 0.375000 0.500000
vt 0.125000 0.250000
vt 0.625000 0.500000
vt 0.875000 0.250000
vt 0.375000 0.375000
vt 0.250000 0.250000
vt 0.625000 0.625000
vt 0.875000 0.125000
vt 0.375000 0.625000
vt 0.125000 0.125000
vt 0.625000 0.125000
vt 0.375000 0.125000
vt 0.625000 0.375000
vt 0.750000 0.250000
vt 0.750000 0.125000
vt 0.250000 0.125000
vt 0.437500 0.062500
vt 0.437500 0.187500
vt 0.437500 0.312500
vt 0.437500 0.437500
vt 0.437500 0.562500
vt 0.437500 0.687500
vt 0.687500 0.062500
vt 0.812500 0.062500
vt 0.812500 0.187500
vt 0.687500 0.187500
vt 0.187500 0.062500
vt 0.312500 0.062500
vt 0.312500 0.187500
vt 0.187500 0.187500
vt 0.437500 0.125000
vt 0.375000 0.062500
vt 0.625000 0.062500
vt 0.625000 0.187500
vt 0.437500 0.250000
vt 0.375000 0.187500
vt 0.437500 0.375000
vt 0.375000 0.312500
vt 0.312500 0.250000
vt 0.625000 0.312500
vt 0.687500 0.250000
vt 0.625000 0.437500
vt 0.812500 0.250000
vt 0.437500 0.500000
vt 0.375000 0.437500
vt 0.187500 0.250000
vt 0.437500 0.625000
vt 0.375000 0.562500
vt 0.125000 0.187500
vt 0.625000 0.562500
vt 0.875000 0.187500
vt 0.625000 0.687500
vt 0.875000 0.062500
vt 0.375000 0.687500
vt 0.125000 0.062500
vt 0.750000 0.062500
vt 0.687500 0.125000
vt 0.812500 0.125000
vt 0.750000 0.187500
vt 0.250000 0.062500
vt 0.187500 0.125000
vt 0.312500 0.125000
vt 0.250000 0.187500
vn -0.394741 -0.424086 0.815065
vn -0.284594 -0.841775 0.458716
vn -0.071663 -0.911637 0.404701
vn 0.131211 -0.578380 0.805146
vn -0.424704 -0.854156 0.300074
vn -0.724140 -0.539894 0.429109
vn 0.234371 0.462088 0.855304
vn -0.280954 0.588343 0.758233
vn -0.057750 0.746406 0.662981
vn -0.293403 0.776222 0.558027
vn -0.749360 0.556174 0.359347
vn -0.660380 0.694731 0.285040
vn -0.022325 0.995222 0.095050
vn -0.624733 0.756037 0.195233
vn 0.188940 0.954345 0.231359
vn 0.062475 0.914925 -0.398759
vn 0.405257 0.870352 -0.279739
vn -0.462992 0.873098 -0.152768
vn 0.199988 0.885302 -0.419815
vn -0.039941 0.862862 -0.503859
vn 0.075169 0.738508 -0.670042
vn -0.059448 0.739061 -0.671010
vn -0.268818 0.806889 -0.525991
vn -0.398637 0.725647 -0.560825
vn -0.074294 0.505960 -0.859352
vn -0.624031 0.427239 -0.654257
vn 0.186177 0.555195 -0.810615
vn -0.040462 -0.430297 -0.901780
vn 0.394654 -0.400052 -0.827168
vn -0.627897 -0.713904 -0.309979
vn 0.184380 -0.936442 -0.298464
vn -0.055132 -0.956797 -0.285482
vn -0.375109 -0.926471 -0.030736
vn 0.292467 -0.941249 0.168857
vn 0.290454 -0.956374 -0.031400
vn 0.900543 -0.409352 0.146469
vn 0.834769 -0.385144 0.393479
vn 0.426637 -0.892774 -0.144691
vn 0.891589 -0.337521 -0.301907
vn 0.695421 0.693087 -0.189786
vn 0.801387 0.587420 0.112766
vn 0.788644 0.530337 0.311100
vn -0.481079 -0.870878 0.100676
vn -0.569220 -0.813008 0.122501
vn -0.943077 -0.329047 0.048318
vn -0.708910 -0.696318 -0.112193
vn -0.536704 -0.839211 0.087601
vn -0.857333 -0.453490 0.243570
vn -0.700305 0.631801 0.332267
vn -0.629579 0.759048 -0.165761
vn -0.467194 0.491408 -0.735016
s 1
g pCube1
usemtl initialShadingGroup
f 25/33/1 38/19/2 27/35/3 8/13/4
f 26/34/5 38/19/2 25/33/1 9/14/6
f 25/33/1 8/13/4 28/36/7 39/20/8
f 28/36/7 2/2/9 29/37/10 39/20/8
f 9/14/6 25/33/1 39/20/8 30/38/11
f 30/38/11 39/20/8 29/37/10 1/1/12
f 1/1/12 29/37/10 40/21/13 32/40/14
f 40/21/13 29/37/10 2/2/9 33/42/15
f 31/39/16 40/21/13 33/42/15 10/15/17
f 32/40/14 40/21/13 31/39/16 5/7/18
f 31/39/16 10/15/17 34/44/19 41/22/20
f 34/44/19 4/5/21 35/46/22 41/22/20
f 5/7/18 31/39/16 41/22/20 36/47/23
f 36/47/23 41/22/20 35/46/22 3/3/24
f 3/3/24 35/46/22 42/23/25 13/50/26
f 42/23/25 35/46/22 4/5/21 14/52/27
f 37/49/28 42/23/25 14/52/27 6/9/29
f 13/50/26 42/23/25 37/49/28 7/11/30
f 37/49/28 6/9/29 15/54/31 43/24/32
f 7/11/30 37/49/28 43/24/32 16/56/33
f 44/25/34 17/58/35 11/17/36 18/59/37
f 27/35/3 44/25/34 18/59/37 8/13/4
f 45/26/38 15/55/31 6/10/29 19/60/39
f 17/58/35 45/26/38 19/60/39 11/17/36
f 11/17/36 19/60/39 46/27/40 20/61/41
f 19/60/39 6/10/29 14/53/27 46/27/40
f 46/27/40 14/53/27 4/6/21 34/45/19
f 20/61/41 46/27/40 34/45/19 10/16/17
f 8/13/4 18/59/37 47/28/42 28/36/7
f 18/59/37 11/17/36 20/61/41 47/28/42
f 47/28/42 20/61/41 10/16/17 33/43/15
f 28/36/7 47/28/42 33/43/15 2/2/9
f 48/29/43 21/62/44 12/18/45 22/63/46
f 16/57/33 48/29/43 22/63/46 7/12/30
f 49/30/47 26/34/5 9/14/6 23/64/48
f 21/62/44 49/30/47 23/64/48 12/18/45
f 12/18/45 23/64/48 50/31/49 24/65/50
f 23/64/48 9/14/6 30/38/11 50/31/49
f 50/31/49 30/38/11 1/1/12 32/41/14
f 24/65/50 50/31/49 32/41/14 5/8/18
f 7/12/30 22/63/46 51/32/51 13/51/26
f 22/63/46 12/18/45 24/65/50 51/32/51
f 51/32/51 24/65/50 5/8/18 36/48/23
f 13/51/26 51/32/51 36/48/23 3/4/24
