# This file uses centimeters as units for non-parametric coordinates.

mtllib oi.mtl
g default
v -0.531354 -0.252573 0.339987
v 0.276562 -0.329708 0.625953
v -0.496820 0.255807 0.299049
v 0.305274 0.352715 0.686655
v -0.544603 0.173071 -0.354293
v 0.435043 0.227764 -0.368246
v -0.456495 -0.314387 -0.325437
v 0.301343 -0.353341 -0.464035
v -0.525000 0.319752 -0.016923
v 0.590608 -0.116235 -0.554114
v -0.088601 -0.412109 -0.428636
v -0.656924 -0.106821 -0.441233
v 0.416153 -0.344507 -0.079347
v -0.521994 -0.335386 -0.010618
v -0.198476 -0.299570 0.561308
v 0.363942 -0.111430 0.854834
v -0.188540 0.281104 0.524274
v -0.680756 -0.011422 0.385134
v 0.374770 0.349408 0.000255
v -0.049461 0.313535 -0.628500
v -0.274944 0.099692 0.921585
v 0.066997 0.525442 -0.098682
v -0.175349 -0.222566 -0.689879
v -0.046306 -0.440524 0.009932
v 0.863239 -0.131236 0.066228
v -0.858075 0.074875 -0.171017
v -0.634131 0.044250 -0.420456
v 0.537294 0.102215 -0.446244
v 0.142900 -0.180887 -0.675360
v 0.537162 -0.344351 -0.629958
v 0.088118 -0.397107 -0.471179
v -0.154389 -0.358306 -0.581894
v -0.274274 -0.372261 -0.372381
v -0.575041 -0.238160 -0.398490
v -0.040614 -0.436182 -0.228159
v -0.280431 -0.413338 0.012513
v -0.496534 -0.327988 -0.193482
v 0.417885 -0.342036 -0.309999
v 0.173106 -0.422161 -0.030965
v 0.349028 -0.357216 0.325020
v -0.112203 -0.399789 0.309985
v -0.536746 -0.303749 0.183036
v 0.693548 -0.227077 -0.062667
v 0.574372 -0.095923 0.522410
v 0.771388 -0.003420 -0.326374
v 0.641635 0.160815 -0.013216
v -0.720176 -0.195151 -0.030630
v -0.794222 -0.047381 -0.254486
v -0.787612 0.030407 0.117064
v -0.808490 0.285903 -0.218915
v -0.407034 -0.283567 0.463856
v -0.272881 -0.140057 0.750350
v -0.483310 0.088787 0.724988
v -0.634576 -0.157547 0.368186
v 0.063517 -0.324893 0.599779
v 0.344624 -0.253924 0.774853
v -0.111211 -0.063402 0.856082
v 0.336301 0.049536 0.796967
v 0.091550 0.265534 0.562965
v -0.280265 0.193042 0.791581
v -0.417678 0.308897 0.430413
v -0.613115 0.140912 0.352276
v 0.007552 0.534620 0.127125
v -0.260764 0.499464 -0.039608
v -0.516154 0.309331 0.159973
v 0.367495 0.460622 0.434502
v 0.163545 0.458269 -0.010263
v 0.420478 0.314738 -0.221069
v 0.243734 0.278381 -0.481425
v -0.075727 0.420127 -0.200979
v -0.412840 0.191853 -0.412552
v -0.531961 0.272833 -0.203845
v -0.162206 0.027188 -0.709767
v -0.383522 -0.213370 -0.711725
v -0.467577 -0.128963 0.603968
v -0.091652 -0.213824 0.807363
v 0.022127 0.109892 0.734775
v -0.439809 0.217340 0.628758
v -0.249221 0.630504 0.045192
v 0.129472 0.386343 0.281140
v 0.152930 0.398233 -0.208177
v -0.295212 0.377923 -0.191636
v -0.438631 -0.041791 -0.666615
v 0.311087 0.124644 -0.716222
v 0.053761 -0.320761 -0.604059
v -0.335938 -0.319254 -0.547559
v -0.254792 -0.403651 -0.193686
v 0.165585 -0.417656 -0.273858
v 0.135312 -0.405531 0.325577
v -0.334286 -0.372654 0.252466
v 0.512872 -0.250280 0.429461
v 0.677141 -0.196147 -0.331498
v 0.678292 0.171287 -0.273259
v 0.534387 0.320058 0.547660
v -0.706697 -0.206699 -0.228639
v -0.697699 -0.175212 0.170152
v -0.725627 0.215009 0.079527
v -0.734970 0.134960 -0.258705
vt 0.375000 0.000000
vt 0.375000 1.000000
vt 0.625000 0.000000
vt 0.625000 1.000000
vt 0.375000 0.250000
vt 0.625000 0.250000
vt 0.375000 0.500000
vt 0.125000 0.250000
vt 0.625000 0.500000
vt 0.875000 0.250000
vt 0.375000 0.750000
vt 0.125000 0.000000
vt 0.625000 0.750000
vt 0.875000 0.000000
vt 0.375000 0.375000
vt 0.250000 0.250000
vt 0.625000 0.625000
vt 0.875000 0.125000
vt 0.500000 0.750000
vt 0.375000 0.625000
vt 0.125000 0.125000
vt 0.625000 0.875000
vt 0.750000 0.000000
vt 0.375000 0.875000
vt 0.250000 0.000000
vt 0.500000 0.000000
vt 0.500000 1.000000
vt 0.625000 0.125000
vt 0.500000 0.250000
vt 0.375000 0.125000
vt 0.625000 0.375000
vt 0.750000 0.250000
vt 0.500000 0.500000
vt 0.500000 0.125000
vt 0.500000 0.375000
vt 0.500000 0.625000
vt 0.500000 0.875000
vt 0.750000 0.125000
vt 0.250000 0.125000
vt 0.437500 0.062500
vt 0.562500 0.062500
vt 0.562500 0.187500
vt 0.437500 0.187500
vt 0.437500 0.312500
vt 0.562500 0.312500
vt 0.562500 0.437500
vt 0.437500 0.437500
vt 0.437500 0.562500
vt 0.562500 0.562500
vt 0.562500 0.687500
vt 0.437500 0.687500
vt 0.437500 0.812500
vt 0.562500 0.812500
vt 0.562500 0.937500
vt 0.437500 0.937500
vt 0.687500 0.062500
vt 0.812500 0.062500
vt 0.812500 0.187500
vt 0.687500 0.187500
vt 0.187500 0.062500
vt 0.312500 0.062500
vt 0.312500 0.187500
vt 0.187500 0.187500
vt 0.437500 0.000000
vt 0.437500 1.000000
vt 0.500000 0.062500
vt 0.437500 0.125000
vt 0.375000 0.062500
vt 0.562500 0.000000
vt 0.562500 1.000000
vt 0.625000 0.062500
vt 0.562500 0.125000
vt 0.625000 0.187500
vt 0.562500 0.250000
vt 0.500000 0.187500
vt 0.437500 0.250000
vt 0.375000 0.187500
vt 0.500000 0.312500
vt 0.437500 0.375000
vt 0.375000 0.312500
vt 0.312500 0.250000
vt 0.625000 0.312500
vt 0.687500 0.250000
vt 0.562500 0.375000
vt 0.625000 0.437500
vt 0.812500 0.250000
vt 0.562500 0.500000
vt 0.500000 0.437500
vt 0.437500 0.500000
vt 0.375000 0.437500
vt 0.187500 0.250000
vt 0.500000 0.562500
vt 0.437500 0.625000
vt 0.375000 0.562500
vt 0.125000 0.187500
vt 0.625000 0.562500
vt 0.875000 0.187500
vt 0.562500 0.625000
vt 0.625000 0.687500
vt 0.875000 0.062500
vt 0.562500 0.750000
vt 0.500000 0.687500
vt 0.437500 0.750000
vt 0.375000 0.687500
vt 0.125000 0.062500
vt 0.500000 0.812500
vt 0.437500 0.875000
vt 0.375000 0.812500
vt 0.187500 0.000000
vt 0.625000 0.812500
vt 0.812500 0.000000
vt 0.562500 0.875000
vt 0.625000 0.937500
vt 0.687500 0.000000
vt 0.500000 0.937500
vt 0.375000 0.937500
vt 0.312500 0.000000
vt 0.750000 0.062500
vt 0.687500 0.125000
vt 0.812500 0.125000
vt 0.750000 0.187500
vt 0.250000 0.062500
vt 0.187500 0.125000
vt 0.312500 0.125000
vt 0.250000 0.187500
vn -0.531248 -0.778920 0.333255
vn -0.379563 -0.827369 0.413996
vn -0.606399 -0.532587 0.590451
vn -0.758427 -0.487870 0.432171
vn -0.240677 -0.884711 0.399200
vn -0.432943 -0.631160 0.643581
vn -0.181245 0.111006 0.977153
vn -0.766024 0.014944 0.642638
vn -0.887674 0.019603 0.460055
vn -0.069725 -0.933766 0.351026
vn -0.155801 -0.686126 0.710604
vn 0.185170 -0.935953 0.299505
vn 0.364358 -0.689472 0.625997
vn 0.480751 -0.046397 0.875629
vn 0.020462 -0.020554 0.999579
vn 0.028159 0.627752 0.777904
vn 0.001206 0.793098 0.609093
vn 0.399694 0.379838 0.834247
vn -0.032517 0.729461 0.683249
vn -0.150980 0.818576 0.554201
vn 0.040983 0.853637 0.519253
vn -0.506574 0.771711 0.384505
vn -0.749360 0.556174 0.359347
vn -0.312567 0.838244 0.446820
vn -0.660380 0.694731 0.285040
vn -0.190257 0.943177 0.272432
vn -0.624733 0.756037 0.195233
vn 0.153596 0.913389 0.376999
vn 0.256670 0.888092 -0.381331
vn -0.358226 0.837955 -0.411711
vn -0.462992 0.873098 -0.152768
vn 0.020659 0.957065 0.289135
vn 0.304021 0.947243 0.101494
vn 0.460848 0.882145 -0.097161
vn 0.334173 0.940422 -0.062726
vn 0.268699 0.914135 -0.303575
vn -0.120326 0.903996 -0.410260
vn 0.438440 0.879475 -0.185188
vn 0.415790 0.802951 -0.427071
vn 0.262393 0.826074 -0.498750
vn -0.118160 0.778703 -0.616165
vn -0.367271 0.843096 -0.392812
vn -0.268818 0.806889 -0.525991
vn -0.409471 0.736692 -0.538163
vn -0.398637 0.725647 -0.560825
vn -0.487597 0.356497 -0.796969
vn -0.624031 0.427239 -0.654257
vn -0.170203 0.321879 -0.931357
vn -0.006694 -0.289103 -0.957275
vn -0.403435 -0.342869 -0.848340
vn -0.764860 -0.256139 -0.591085
vn 0.326305 0.296119 -0.897685
vn 0.541889 0.453745 -0.707440
vn 0.587578 -0.009874 -0.809108
vn 0.147497 -0.102930 -0.983692
vn 0.074650 -0.631630 -0.771668
vn -0.073520 -0.827794 -0.556195
vn 0.392094 -0.610091 -0.688514
vn 0.193065 -0.975679 -0.103809
vn 0.079872 -0.967440 -0.240166
vn -0.081068 -0.973230 -0.215061
vn -0.388907 -0.829971 -0.399875
vn -0.570868 -0.744622 -0.345902
vn -0.282989 -0.945170 -0.163008
vn -0.382079 -0.905591 -0.184174
vn -0.225415 -0.970350 -0.087227
vn -0.405292 -0.907350 -0.111599
vn -0.035121 -0.997076 -0.067872
vn -0.030218 -0.998262 0.050589
vn -0.216081 -0.975699 0.036345
vn -0.438817 -0.898272 0.023409
vn 0.187415 -0.979491 -0.073974
vn 0.351328 -0.936231 0.006321
vn 0.375094 -0.926777 0.019725
vn 0.184345 -0.982422 0.029407
vn 0.087106 -0.984564 0.151813
vn -0.093096 -0.973410 0.209301
vn 0.338894 -0.934469 0.109171
vn -0.250358 -0.947899 0.196997
vn -0.480231 -0.861207 0.166434
vn 0.550895 -0.800269 0.236820
vn 0.580447 -0.814243 0.009452
vn 0.970359 -0.053069 0.235770
vn 0.905681 -0.017563 0.423596
vn 0.697430 -0.686718 -0.204965
vn 0.921815 0.201978 -0.330851
vn 0.695421 0.693087 -0.189786
vn 0.801387 0.587420 0.112766
vn 0.788644 0.530337 0.311100
vn -0.706031 -0.685363 -0.178320
vn -0.786351 -0.613246 0.074712
vn -0.999958 0.001554 -0.009001
vn -0.885264 -0.271811 -0.377394
vn -0.814265 -0.539633 0.213937
vn -0.953121 0.003000 0.302576
vn -0.700305 0.631801 0.332267
vn -0.629579 0.759048 -0.165761
vn -0.467194 0.491408 -0.735016
s 1
g pCube1
usemtl initialShadingGroup
f 1/1/1 51/64/2 75/40/3 54/68/4
f 51/64/2 15/26/5 52/66/6 75/40/3
f 75/40/3 52/66/6 21/34/7 53/67/8
f 54/68/4 75/40/3 53/67/8 18/30/9
f 15/26/5 55/69/10 76/41/11 52/66/6
f 55/69/10 2/3/12 56/71/13 76/41/11
f 76/41/11 56/71/13 16/28/14 57/72/15
f 52/66/6 76/41/11 57/72/15 21/34/7
f 21/34/7 57/72/15 77/42/16 60/75/17
f 57/72/15 16/28/14 58/73/18 77/42/16
f 77/42/16 58/73/18 4/6/19 59/74/20
f 60/75/17 77/42/16 59/74/20 17/29/21
f 18/30/9 53/67/8 78/43/22 62/77/23
f 53/67/8 21/34/7 60/75/17 78/43/22
f 78/43/22 60/75/17 17/29/21 61/76/24
f 62/77/23 78/43/22 61/76/24 3/5/25
f 3/5/25 61/76/24 79/44/26 65/80/27
f 61/76/24 17/29/21 63/78/28 79/44/26
f 79/44/26 63/78/28 22/35/29 64/79/30
f 65/80/27 79/44/26 64/79/30 9/15/31
f 17/29/21 59/74/20 80/45/32 63/78/28
f 59/74/20 4/6/19 66/82/33 80/45/32
f 80/45/32 66/82/33 19/31/34 67/84/35
f 63/78/28 80/45/32 67/84/35 22/35/29
f 22/35/29 67/84/35 81/46/36 70/88/37
f 67/84/35 19/31/34 68/85/38 81/46/36
f 81/46/36 68/85/38 6/9/39 69/87/40
f 70/88/37 81/46/36 69/87/40 20/33/41
f 9/15/31 64/79/30 82/47/42 72/90/43
f 64/79/30 22/35/29 70/88/37 82/47/42
f 82/47/42 70/88/37 20/33/41 71/89/44
f 72/90/43 82/47/42 71/89/44 5/7/45
f 5/7/45 71/89/44 83/48/46 27/94/47
f 71/89/44 20/33/41 73/92/48 83/48/46
f 83/48/46 73/92/48 23/36/49 74/93/50
f 27/94/47 83/48/46 74/93/50 12/20/51
f 20/33/41 69/87/40 84/49/52 73/92/48
f 69/87/40 6/9/39 28/96/53 84/49/52
f 84/49/52 28/96/53 10/17/54 29/98/55
f 73/92/48 84/49/52 29/98/55 23/36/49
f 23/36/49 29/98/55 85/50/56 32/102/57
f 29/98/55 10/17/54 30/99/58 85/50/56
f 85/50/56 30/99/58 8/13/59 31/101/60
f 32/102/57 85/50/56 31/101/60 11/19/61
f 12/20/51 74/93/50 86/51/62 34/104/63
f 74/93/50 23/36/49 32/102/57 86/51/62
f 86/51/62 32/102/57 11/19/61 33/103/64
f 34/104/63 86/51/62 33/103/64 7/11/65
f 7/11/65 33/103/64 87/52/66 37/108/67
f 33/103/64 11/19/61 35/106/68 87/52/66
f 87/52/66 35/106/68 24/37/69 36/107/70
f 37/108/67 87/52/66 36/107/70 14/24/71
f 11/19/61 31/101/60 88/53/72 35/106/68
f 31/101/60 8/13/59 38/110/73 88/53/72
f 88/53/72 38/110/73 13/22/74 39/112/75
f 35/106/68 88/53/72 39/112/75 24/37/69
f 24/37/69 39/112/75 89/54/76 41/115/77
f 39/112/75 13/22/74 40/113/78 89/54/76
f 89/54/76 40/113/78 2/4/12 55/70/10
f 41/115/77 89/54/76 55/70/10 15/27/5
f 14/24/71 36/107/70 90/55/79 42/116/80
f 36/107/70 24/37/69 41/115/77 90/55/79
f 90/55/79 41/115/77 15/27/5 51/65/2
f 42/116/80 90/55/79 51/65/2 1/2/1
f 2/3/12 40/114/78 91/56/81 56/71/13
f 40/114/78 13/23/74 43/118/82 91/56/81
f 91/56/81 43/118/82 25/38/83 44/119/84
f 56/71/13 91/56/81 44/119/84 16/28/14
f 13/23/74 38/111/73 92/57/85 43/118/82
f 38/111/73 8/14/59 30/100/58 92/57/85
f 92/57/85 30/100/58 10/18/54 45/120/86
f 43/118/82 92/57/85 45/120/86 25/38/83
f 25/38/83 45/120/86 93/58/87 46/121/88
f 45/120/86 10/18/54 28/97/53 93/58/87
f 93/58/87 28/97/53 6/10/39 68/86/38
f 46/121/88 93/58/87 68/86/38 19/32/34
f 16/28/14 44/119/84 94/59/89 58/73/18
f 44/119/84 25/38/83 46/121/88 94/59/89
f 94/59/89 46/121/88 19/32/34 66/83/33
f 58/73/18 94/59/89 66/83/33 4/6/19
f 7/12/65 37/109/67 95/60/90 34/105/63
f 37/109/67 14/25/71 47/122/91 95/60/90
f 95/60/90 47/122/91 26/39/92 48/123/93
f 34/105/63 95/60/90 48/123/93 12/21/51
f 14/25/71 42/117/80 96/61/94 47/122/91
f 42/117/80 1/1/1 54/68/4 96/61/94
f 96/61/94 54/68/4 18/30/9 49/124/95
f 47/122/91 96/61/94 49/124/95 26/39/92
f 26/39/92 49/124/95 97/62/96 50/125/97
f 49/124/95 18/30/9 62/77/23 97/62/96
f 97/62/96 62/77/23 3/5/25 65/81/27
f 50/125/97 97/62/96 65/81/27 9/16/31
f 12/21/51 48/123/93 98/63/98 27/95/47
f 48/123/93 26/39/92 50/125/97 98/63/98
f 98/63/98 50/125/97 9/16/31 72/91/43
f 27/95/47 98/63/98 72/91/43 5/8/45
